<svg width="375" height="80" viewBox="0 0 375 80" fill="none" xmlns="http://www.w3.org/2000/svg">
<g clip-path="url(#clip0_9_2)">
<path d="M100.312 64.8663V0H111.113V64.8663H100.312ZM103.258 64.8663V55.5295H139.69V64.8663H103.258Z" fill="#181818"/>
<path d="M0 64.8663V0H10.8013V64.8663H0ZM2.94581 64.8663V55.5295H39.3775V64.8663H2.94581Z" fill="#181818"/>
<path d="M204.543 13.7595H195.215V64.8663H205.916C206.361 50.9612 206.116 37.047 205.179 23.1691L204.543 13.7595Z" fill="#181818"/>
<path d="M268.678 26.336C268.023 23.2601 267.005 20.703 265.632 18.6736C264.259 16.6443 262.559 15.1063 260.523 14.0507C258.559 13.0042 256.267 12.4764 253.649 12.4764C250.503 12.4764 247.757 13.2317 245.402 14.7332C245.212 14.8515 245.03 14.988 244.848 15.1154L241.502 27.6191C242.166 26.518 242.911 25.5625 243.739 24.7617C245.639 22.9234 247.794 22.0134 250.221 22.0134C252.249 22.0134 253.885 22.6049 255.131 23.7788C256.44 24.9619 257.386 26.7637 257.977 29.1844C258.631 31.605 258.959 34.6536 258.959 38.321V64.8572H269.76V37.047C269.76 32.9883 269.396 29.4119 268.678 26.336Z" fill="#181818"/>
<path d="M237.065 26.336C236.41 23.2601 235.392 20.703 234.019 18.6736C232.646 16.6443 230.946 15.1063 228.91 14.0507C226.946 13.0042 224.655 12.4764 222.036 12.4764C218.89 12.4764 216.144 13.2317 213.79 14.7332C213.599 14.8515 213.417 14.988 213.235 15.1154L209.889 27.6191C210.553 26.518 211.298 25.5625 212.126 24.7617C214.026 22.9234 216.181 22.0134 218.608 22.0134C220.636 22.0134 222.272 22.6049 223.518 23.7788C224.827 24.9619 225.773 26.7637 226.364 29.1844C227.018 31.605 227.346 34.6536 227.346 38.321V64.8572H238.147V37.047C238.147 32.9883 237.783 29.4119 237.065 26.336Z" fill="#181818"/>
<path d="M188.532 57.8865C188.468 55.4658 188.405 53.0724 188.332 50.7155C188.268 48.2948 188.232 45.9288 188.232 43.6355V33.6071C188.232 28.8204 187.45 24.8891 185.877 21.8132C184.304 18.6645 182.013 16.344 179.003 14.8333C176.058 13.259 172.394 12.4764 168.002 12.4764C165.184 12.4764 162.501 12.804 159.947 13.4592C157.392 14.1144 155.101 15.1609 153.073 16.6079C151.046 17.982 149.373 19.7566 148.063 21.9133C146.754 24.0064 145.899 26.5362 145.509 29.4847L155.228 31.6505C155.492 29.0934 156.273 27.064 157.583 25.5534C158.892 23.9791 160.429 22.8688 162.201 22.2136C164.038 21.5584 165.866 21.2308 167.702 21.2308C170.912 21.2308 173.366 22.0134 175.067 23.5877C176.831 25.1621 177.722 27.1914 177.722 29.6849C177.722 30.9953 177.394 31.9781 176.74 32.6334C176.085 33.2886 174.976 33.78 173.403 34.1076C171.83 34.4352 169.575 34.8265 166.629 35.2906C163.092 35.8184 159.919 36.4736 157.101 37.2563C154.355 37.9752 151.964 38.958 149.936 40.2047C147.972 41.4515 146.463 43.0258 145.418 44.9187C144.436 46.8206 143.945 49.1411 143.945 51.8985C143.945 55.1746 144.599 57.8592 145.909 59.9613C147.218 62.0544 148.982 63.6287 151.209 64.6752C153.5 65.658 156.019 66.1495 158.774 66.1495C162.247 66.1495 165.256 65.4578 167.811 64.0837C170.102 62.8188 172.021 61.1898 173.612 59.2242L175.376 49.9329C175.376 49.9329 173.085 53.1725 171.648 54.3556C170.212 55.5386 168.702 56.4213 167.129 57.0128C165.556 57.6044 163.983 57.8956 162.42 57.8956C160.065 57.8956 158.165 57.2767 156.728 56.03C155.292 54.7196 154.564 52.9177 154.564 50.6245C154.564 48.6588 155.055 47.1209 156.037 46.0016C157.019 44.8185 158.328 43.9085 159.965 43.2533C161.601 42.5981 163.402 42.1067 165.365 41.7791C167.329 41.4515 169.257 41.1239 171.157 40.7963C173.121 40.4686 174.921 40.0409 176.558 39.5222C177.012 39.3766 177.431 39.2037 177.831 39.0308C177.831 39.0308 177.831 64.8026 177.831 64.8845H188.923C188.796 62.5913 188.659 60.2616 188.532 57.9047V57.8865Z" fill="#181818"/>
<path d="M286.88 13.7595H277.27V80H287.971L288.053 60.48C288.117 44.9004 287.726 29.3209 286.88 13.7595Z" fill="#181818"/>
<path d="M322.63 24.9619C320.994 20.9669 318.639 17.8819 315.556 15.7252C312.547 13.5593 308.883 12.4855 304.555 12.4855C301.482 12.4855 298.791 13.1043 296.5 14.351C295.472 14.8788 294.536 15.534 293.663 16.3167L290.108 29.5848C290.526 28.7658 290.981 27.974 291.49 27.2278C292.672 25.5898 294.108 24.2794 295.809 23.2965C297.509 22.3137 299.509 21.8223 301.8 21.8223C304.419 21.8223 306.646 22.5412 308.474 23.9881C310.31 25.426 311.711 27.4644 312.693 30.0853C313.674 32.7062 314.165 35.782 314.165 39.322C314.165 42.862 313.674 45.9743 312.693 48.6588C311.711 51.2797 310.301 53.3454 308.474 54.847C306.637 56.3576 304.419 57.1038 301.8 57.1038C299.9 57.1038 298.2 56.7398 296.691 56.0209C295.181 55.2383 293.872 54.2191 292.763 52.9723C291.79 51.7529 290.963 50.4425 290.272 49.0501L293.708 61.8905C294.527 62.6823 295.418 63.3739 296.4 63.9745C298.754 65.4123 301.637 66.1403 305.037 66.1403C309.228 66.1403 312.793 65.0574 315.738 62.9007C318.748 60.7348 321.075 57.6589 322.712 53.664C324.348 49.6053 325.167 44.8185 325.167 39.3129C325.167 33.8073 324.312 28.9569 322.612 24.9619H322.63Z" fill="#181818"/>
<path d="M324.994 64.8663L341.878 12.0123H358.198L375 64.8663H363.08L350.597 20.7394H349.479L336.914 64.8663H324.994Z" fill="#181818"/>
<path d="M44.1871 64.8663L61.071 12.0123H77.3912L94.1932 64.8663H82.2736L69.7902 20.7394H68.6719L56.1068 64.8663H44.1871Z" fill="#181818"/>
</g>
<defs>
<clipPath id="clip0_9_2">
<rect width="375" height="80" fill="white"/>
</clipPath>
</defs>
</svg>
